<svg xmlns="http://www.w3.org/2000/svg" width="16" height="24" class="bi bi-eraser-fill" viewBox="0 0 16 16">
    <g transform="matrix(0.973652,0,0,0.973652,0.210784,0.210672)">
        <path d="M1.901,4.287C1.279,4.338 0.783,4.866 0.783,5.5L0.797,5.68L2.169,14.83C2.331,15.909 3.268,16.716 4.359,16.717L11.638,16.717C12.73,16.717 13.668,15.91 13.83,14.83L15.203,5.68C15.212,5.62 15.217,5.56 15.217,5.5C15.217,4.866 14.721,4.338 14.099,4.287C13.531,1.418 10.981,-0.726 8,-0.726C5.019,-0.726 2.469,1.418 1.901,4.287ZM1.501,5.515C1.501,5.535 1.503,5.554 1.506,5.574L2.878,14.723C2.988,15.453 3.621,15.999 4.36,16L11.638,16C12.377,16 13.011,15.454 13.121,14.723L14.494,5.574C14.498,5.55 14.5,5.525 14.5,5.5C14.5,5.226 14.274,5 14,5L13.478,5C13.225,2.179 10.832,-0.009 8,-0.009C5.168,-0.009 2.775,2.179 2.522,5L2,5C1.884,5 1.777,5.041 1.692,5.108C1.555,4.747 1.502,4.348 1.901,4.29L1.901,4.29C1.552,4.338 1.283,4.638 1.283,5C1.283,5.202 1.367,5.385 1.501,5.515ZM3.527,5C3.779,2.732 5.718,0.997 8,0.997C10.281,0.997 12.22,2.732 12.472,5L3.527,5ZM1.962,4.284L1.999,4.283C1.987,4.283 1.974,4.283 1.962,4.284ZM4.417,4.283C4.929,2.781 6.359,1.714 8,1.714C9.64,1.714 11.07,2.781 11.582,4.283L4.417,4.283Z" style="fill:white;"/>
        <path d="M2.522,5L2,5C1.726,5 1.5,5.226 1.5,5.5C1.5,5.525 1.502,5.55 1.506,5.574L2.878,14.723C2.988,15.453 3.621,15.999 4.36,16L11.638,16C12.377,16 13.011,15.454 13.121,14.723L14.494,5.574C14.498,5.55 14.5,5.525 14.5,5.5C14.5,5.226 14.274,5 14,5L13.478,5C13.225,2.179 10.832,-0.009 8,-0.009C5.168,-0.009 2.775,2.179 2.522,5ZM3.527,5C3.779,2.732 5.718,0.997 7.999,0.997C10.281,0.997 12.22,2.732 12.472,5L3.527,5Z" style="fill-rule:nonzero;"/>
    </g>
</svg>
