<svg xmlns="http://www.w3.org/2000/svg" width="16" height="16" fill="currentColor" class="bi bi-eraser-fill" viewBox="0 0 16 16">
  <path d="M2.043,4.289L1.69,8.003L3.068,9.748L9.012,3.83L6.061,1.044L2.043,4.289Z" style="fill:white;"/>
  <g transform="matrix(6.12323e-17,1,-1,6.12323e-17,16.3122,0.00347072)">
      <path d="M7.682,1.763L7.661,1.783L0.782,8.662C-0.227,9.67 -0.227,11.33 0.782,12.338L3.282,14.838C3.769,15.326 4.431,15.6 5.12,15.6L7.879,15.6C8.568,15.6 9.23,15.326 9.717,14.838L15.217,9.338C16.226,8.33 16.226,6.67 15.217,5.662L11.338,1.783C10.336,0.781 8.692,0.775 7.682,1.763ZM8.569,1.853C8.395,1.943 8.231,2.062 8.086,2.207L8.085,2.207L1.206,9.086C0.43,9.862 0.43,11.138 1.206,11.914L3.706,14.414C4.081,14.789 4.59,15 5.12,15L7.879,15C8.409,15 8.918,14.789 9.293,14.414L14.793,8.914C15.569,8.138 15.569,6.862 14.793,6.086L10.914,2.207C10.284,1.577 9.324,1.459 8.569,1.852C8.506,1.765 8.419,1.696 8.316,1.653C8.245,1.624 8.172,1.609 8.098,1.607C8.171,1.609 8.245,1.624 8.315,1.653C8.418,1.696 8.505,1.766 8.569,1.853ZM8.746,13.547L3.453,8.254L1.914,9.793C1.526,10.181 1.526,10.819 1.914,11.207L4.414,13.707C4.601,13.894 4.856,14 5.121,14L7.88,14C8.145,14 8.4,13.894 8.587,13.707L8.746,13.547ZM7.75,13.4L5.121,13.4C5.015,13.4 4.913,13.358 4.838,13.283L2.338,10.783C2.183,10.628 2.183,10.372 2.338,10.217C2.338,10.217 3.453,9.103 3.453,9.103L7.75,13.4Z" style="fill:white;"/>
      <path d="M8.086,2.207C8.862,1.431 10.138,1.431 10.914,2.207L14.793,6.086C15.569,6.862 15.569,8.138 14.793,8.914L9.293,14.414C8.918,14.789 8.409,15 7.879,15L5.12,15C4.59,15 4.081,14.789 3.706,14.414L1.206,11.914C0.43,11.138 0.43,9.862 1.206,9.086L8.085,2.207L8.086,2.207ZM8.746,13.547L3.453,8.254L1.914,9.793C1.526,10.181 1.526,10.819 1.914,11.207L4.414,13.707C4.601,13.894 4.856,14 5.121,14L7.88,14C8.145,14 8.4,13.894 8.587,13.707L8.747,13.547L8.746,13.547Z" style="fill-rule:nonzero;"/>
  </g>
</svg>