<svg xmlns="http://www.w3.org/2000/svg" width="16" height="16" fill="currentColor" class="bi bi-pencil-fill" viewBox="0 0 16 16">
  <g transform="matrix(5.56318e-17,0.908536,-0.908536,5.56318e-17,15.269,0.731414)">
    <path d="M6.31,14.213L6.314,14.211L6.287,14.277C6.287,14.277 6.432,14.132 6.456,14.108C6.527,14.037 6.571,13.965 6.598,13.9C6.643,13.845 6.706,13.765 6.728,13.726C6.799,13.601 6.818,13.484 6.818,13.395C6.817,13.357 6.814,13.318 6.806,13.281C7.017,13.352 7.26,13.303 7.428,13.135L13.928,6.635C14.075,6.488 14.131,6.285 14.095,6.095C14.285,6.131 14.488,6.075 14.635,5.928L16.282,4.282C16.489,4.075 16.606,3.794 16.606,3.5C16.606,3.206 16.489,2.925 16.282,2.717L13.282,-0.282C12.853,-0.711 12.148,-0.711 11.719,-0.282L10.072,1.365C9.925,1.512 9.869,1.715 9.905,1.905C9.715,1.869 9.512,1.925 9.365,2.072L2.865,8.572C2.712,8.725 2.658,8.938 2.703,9.135C2.664,9.127 2.624,9.123 2.584,9.122C2.473,9.122 2.326,9.15 2.179,9.266C2.138,9.298 2.05,9.397 1.996,9.46C1.962,9.481 1.928,9.509 1.894,9.543L1.716,9.719C1.611,9.826 1.528,9.952 1.473,10.091C1.474,10.089 -0.526,15.089 -0.526,15.089C-0.578,15.22 -0.605,15.359 -0.605,15.5C-0.605,16.106 -0.106,16.605 0.5,16.605C0.641,16.605 0.78,16.578 0.911,16.526C0.911,16.526 5.911,14.526 5.911,14.526C6.048,14.472 6.174,14.389 6.281,14.284L6.31,14.213ZM12.854,0.146C12.66,-0.048 12.341,-0.048 12.147,0.146L10.5,1.793L14.207,5.5L15.854,3.854C15.948,3.76 16.001,3.633 16.001,3.5C16.001,3.367 15.948,3.24 15.854,3.146L12.854,0.146ZM13.5,6.207L9.793,2.5L3.293,9L7,12.707L13.5,6.207ZM6.032,13.675C6.011,13.619 6.212,13.456 6.212,13.397L2.583,9.728C2.523,9.728 2.381,9.989 2.325,9.968L2.146,10.146C2.098,10.194 2.061,10.251 2.036,10.314L0.036,15.314C0.012,15.373 0,15.436 0,15.5C0,15.774 0.226,16 0.5,16C0.564,16 0.627,15.988 0.686,15.964L5.686,13.964C5.749,13.939 5.806,13.902 5.854,13.854L6.032,13.675Z" style="fill:white;"/>
    <path d="M12.854,0.146C12.66,-0.048 12.341,-0.048 12.147,0.146L10.5,1.793L14.207,5.5L15.854,3.854C15.948,3.76 16.001,3.633 16.001,3.5C16.001,3.367 15.948,3.24 15.854,3.146L12.854,0.146ZM13.5,6.207L9.793,2.5L3.293,9L7,12.707L13.5,6.207ZM6.032,13.675C6.011,13.619 6.212,13.456 6.212,13.397L2.583,9.728C2.523,9.728 2.381,9.989 2.325,9.968L2.146,10.146C2.098,10.194 2.061,10.251 2.036,10.314L0.036,15.314C0.012,15.373 0,15.436 0,15.5C0,15.774 0.226,16 0.5,16C0.564,16 0.627,15.988 0.686,15.964L5.686,13.964C5.749,13.939 5.806,13.902 5.854,13.854L6.032,13.676L6.032,13.675Z" style="fill-rule:nonzero;"/>
  </g>
</svg>